<?xml version="1.0" standalone="no"?>
<!DOCTYPE svg PUBLIC "-//W3C//DTD SVG 20010904//EN"
 "http://www.w3.org/TR/2001/REC-SVG-20010904/DTD/svg10.dtd">
<svg version="1.0" xmlns="http://www.w3.org/2000/svg"
 width="1080.000000pt" height="1080.000000pt" viewBox="0 0 1080.000000 1080.000000"
 preserveAspectRatio="xMidYMid meet">
<metadata>
Created by potrace 1.11, written by Peter Selinger 2001-2013
</metadata>
<g transform="translate(0.000000,1080.000000) scale(0.100000,-0.100000)"
fill="#000000" stroke="none">
<path d="M5145 10774 c-466 -28 -846 -88 -1222 -193 -220 -62 -455 -141 -569
-192 -22 -10 -63 -27 -90 -37 -131 -52 -399 -186 -594 -297 -108 -61 -388
-240 -435 -277 -5 -5 -62 -47 -125 -95 -239 -181 -294 -231 -578 -530 -245
-259 -227 -237 -571 -712 -25 -35 -93 -127 -150 -205 -112 -151 -171 -249
-268 -446 -286 -579 -459 -1184 -528 -1844 -18 -175 -21 -812 -5 -996 19 -214
72 -534 126 -757 109 -459 305 -962 519 -1338 25 -44 51 -91 58 -105 6 -14 17
-30 23 -37 6 -6 24 -37 39 -70 16 -32 31 -60 35 -63 6 -5 174 -247 287 -413
32 -47 85 -116 118 -153 33 -37 97 -109 142 -160 44 -51 91 -106 103 -123 13
-16 53 -54 89 -83 64 -51 355 -292 377 -313 58 -52 326 -265 389 -309 107 -74
311 -201 404 -253 597 -329 1213 -539 1851 -632 318 -46 443 -55 795 -55 352
0 464 8 795 55 454 64 952 207 1383 397 191 84 612 307 658 348 8 8 18 14 22
14 11 0 246 159 365 248 102 75 207 161 291 239 13 12 54 48 90 80 36 32 104
99 151 148 47 50 169 178 272 285 l187 195 252 380 c207 311 270 415 350 575
235 470 405 984 483 1470 14 85 30 184 36 220 39 242 52 834 25 1141 -53 601
-208 1202 -445 1724 -44 96 -201 408 -219 434 -10 14 -31 51 -48 81 -44 82
-96 165 -105 168 -4 2 -8 7 -8 12 0 4 -18 35 -40 68 -22 33 -40 66 -40 74 0 8
-43 72 -95 141 -103 139 -100 135 -150 192 -19 22 -45 54 -57 72 -13 18 -30
36 -40 40 -9 4 -42 37 -73 73 -146 167 -419 429 -630 606 -302 252 -746 530
-1140 712 -135 62 -401 172 -418 172 -5 0 -23 6 -40 14 -32 14 -94 35 -217 74
-245 79 -638 163 -915 197 -257 31 -705 51 -900 39z m490 -426 c66 -36 95 -93
95 -188 0 -104 -33 -170 -105 -207 -18 -10 -67 -18 -120 -21 -78 -4 -94 -2
-109 13 -9 10 -15 24 -12 32 3 8 6 98 6 199 0 173 1 185 19 192 33 12 193 -2
226 -20z m565 -29 c96 -21 140 -81 140 -193 0 -175 -104 -276 -251 -245 -137
30 -189 181 -114 335 30 61 51 81 102 100 47 16 59 17 123 3z m540 -119 c87
-26 130 -66 130 -123 0 -51 -27 -94 -68 -109 -24 -9 -31 -16 -26 -28 11 -24
34 -184 29 -197 -2 -7 -15 -13 -28 -13 -36 0 -44 16 -50 105 -5 70 -9 83 -32
103 -47 40 -59 31 -86 -64 -24 -85 -24 -86 -53 -80 -45 9 -46 -9 9 191 8 28
22 82 33 120 23 86 38 115 59 115 9 0 46 -9 83 -20z m-2502 -180 c25 -96 45
-176 46 -177 1 -1 33 7 71 18 38 10 73 19 78 19 15 0 26 -44 14 -56 -13 -11
-170 -54 -199 -54 -17 0 -24 20 -66 180 -11 41 -30 110 -42 154 -24 86 -20 99
29 94 23 -3 27 -15 69 -178z m-452 -76 c23 -60 52 -137 65 -172 25 -68 25 -68
95 -35 17 7 44 15 60 16 24 2 29 -2 32 -24 3 -23 -4 -28 -93 -62 -52 -20 -100
-37 -105 -37 -5 0 -14 9 -19 19 -14 26 -141 370 -141 382 0 11 40 29 55 25 6
-1 29 -52 51 -112z m3519 57 c42 -28 55 -61 35 -87 -11 -12 -18 -9 -52 22 -30
27 -46 34 -70 32 -65 -6 -63 -55 6 -135 70 -82 73 -147 10 -203 -28 -24 -44
-30 -81 -30 -58 0 -126 32 -154 71 -20 28 -20 31 -4 55 l16 25 40 -40 c48 -47
89 -60 124 -37 39 26 33 62 -25 131 -55 68 -67 100 -50 148 28 88 116 108 205
48z m-3864 -156 c20 -13 53 -51 73 -83 79 -131 61 -252 -46 -312 -121 -68
-221 -32 -290 104 -61 119 -38 226 59 283 82 48 139 50 204 8z m4284 -45 c17
-11 56 -33 88 -50 40 -22 57 -36 57 -50 0 -37 -31 -35 -107 5 -40 21 -74 37
-76 34 -1 -2 -13 -24 -26 -48 l-24 -45 22 -15 c13 -9 39 -25 59 -37 42 -24 47
-33 29 -59 -14 -18 -17 -17 -79 17 l-65 36 -31 -58 c-36 -65 -37 -70 -18 -70
8 0 16 -4 18 -8 2 -4 26 -19 53 -34 52 -26 65 -49 45 -73 -10 -12 -24 -8 -91
28 -44 23 -91 51 -106 63 l-26 20 32 60 c175 319 181 325 246 284z m394 -247
c33 -27 85 -66 116 -88 56 -39 64 -59 33 -79 -13 -8 -27 -3 -64 24 l-48 34
-18 -25 c-9 -13 -54 -73 -99 -134 -44 -60 -83 -116 -86 -122 -7 -17 -33 -16
-57 2 -22 17 -30 3 121 210 67 91 85 125 66 125 -5 0 -25 15 -46 33 -28 23
-36 37 -32 50 12 29 51 19 114 -30z m-5211 -13 c85 -52 79 -198 -9 -248 -16
-10 -29 -21 -29 -27 0 -5 18 -32 40 -60 46 -58 49 -77 15 -95 -30 -16 -11 -36
-164 178 -65 89 -108 159 -105 167 3 8 38 35 77 60 80 51 122 57 175 25z
m3000 -39 c163 -22 389 -66 512 -100 212 -58 323 -95 502 -167 417 -168 781
-389 1144 -694 144 -121 444 -427 503 -514 8 -12 18 -23 21 -26 7 -5 74 -91
103 -131 9 -13 38 -53 64 -89 65 -90 194 -296 217 -348 19 -43 17 -62 -6 -46
-36 26 -98 36 -261 38 -94 2 -193 -1 -219 -5 -44 -8 -154 -53 -240 -99 -20
-11 -43 -20 -50 -20 -28 0 -142 -62 -187 -101 -25 -23 -66 -51 -91 -64 -25
-13 -57 -34 -71 -48 -19 -19 -37 -26 -70 -28 -78 -3 -119 -17 -119 -42 -1 -34
-33 -90 -58 -103 -13 -6 -29 -17 -35 -23 -16 -16 -47 -13 -47 5 0 9 -9 23 -19
32 -10 10 -21 31 -24 49 -5 27 -3 32 19 37 21 6 25 12 22 39 -3 27 -7 32 -33
35 -50 6 -68 35 -63 98 5 54 5 54 -24 54 -21 0 -31 -6 -37 -22 -5 -13 -7 -26
-5 -30 7 -11 7 -103 0 -125 -6 -17 0 -22 40 -33 44 -13 46 -14 40 -44 -4 -17
-15 -43 -27 -59 -16 -23 -19 -38 -15 -89 4 -54 1 -70 -25 -122 -30 -64 -36
-91 -19 -101 6 -3 10 -15 10 -25 0 -10 11 -27 24 -37 22 -17 30 -44 27 -80 -1
-18 -40 -16 -47 1 -14 37 -78 29 -80 -9 -2 -22 33 -63 63 -77 4 -1 16 -16 25
-33 9 -17 27 -32 40 -33 44 -7 76 -82 82 -192 2 -36 10 -84 17 -108 12 -40 15
-43 38 -36 24 7 54 11 89 13 8 1 37 25 65 55 51 52 54 54 118 59 38 2 77 12
92 22 l26 17 -20 21 c-12 12 -28 32 -36 45 -9 13 -25 22 -41 22 -20 0 -23 3
-14 12 7 7 12 25 12 40 0 31 20 37 39 14 9 -11 26 -13 67 -9 34 4 54 2 54 -5
0 -5 24 -15 53 -20 108 -22 126 -32 146 -87 26 -70 60 -89 132 -74 101 21 112
43 54 105 -48 51 -46 70 8 79 85 14 117 43 122 107 7 86 12 111 27 122 18 14
33 50 16 40 -8 -5 -9 -2 -5 10 4 10 7 24 7 31 0 19 35 28 60 15 13 -7 20 -7
20 -1 0 6 7 8 14 5 14 -5 23 0 60 32 15 14 61 7 77 -12 7 -8 9 -31 6 -55 -5
-39 -5 -40 16 -26 12 8 39 19 59 26 20 7 42 19 48 27 7 7 23 14 35 14 13 0 22
6 21 13 -5 28 -37 77 -51 77 -8 0 -15 7 -15 15 0 8 -7 15 -15 15 -8 0 -15 6
-15 14 0 8 -18 23 -40 33 -53 24 -53 51 0 59 31 5 40 11 40 27 0 11 6 27 14
36 8 9 25 28 38 42 17 19 45 31 97 42 93 21 98 21 106 -3 10 -32 25 -23 19 13
-9 60 84 -138 131 -278 101 -305 150 -520 192 -852 22 -172 25 -709 5 -873
-54 -438 -133 -748 -285 -1125 -59 -146 -152 -342 -208 -436 -15 -26 -42 -73
-59 -105 -18 -32 -37 -62 -42 -68 -4 -6 -27 -40 -49 -76 -37 -58 -195 -278
-209 -290 -4 -3 -13 -14 -21 -26 -100 -146 -590 -626 -698 -683 -11 -6 -26
-17 -33 -25 -8 -7 -28 -21 -46 -30 -29 -15 -35 -15 -54 -1 -13 8 -17 15 -10
15 18 0 -8 39 -30 46 -10 3 -18 12 -18 20 0 7 -9 19 -20 26 -11 7 -20 16 -20
20 0 14 -40 48 -58 50 -9 1 -29 0 -45 0 -27 -2 -27 -2 -21 -56 l6 -54 -28 2
c-33 2 -74 25 -74 42 0 16 -96 104 -113 104 -24 0 -27 50 -5 72 15 15 19 31
17 81 -1 34 -5 67 -9 72 -4 6 -22 46 -39 90 -25 61 -30 84 -22 100 20 40 22
84 7 134 -8 28 -11 51 -7 51 5 0 11 12 14 27 3 16 8 37 10 48 3 11 6 24 6 28
2 17 20 -5 41 -49 13 -28 18 -49 12 -53 -10 -6 -16 -66 -13 -128 1 -22 6 -33
16 -33 8 0 15 -4 15 -10 0 -5 7 -10 15 -10 8 0 15 5 15 10 0 6 5 10 10 10 6 0
10 -7 10 -15 0 -20 13 -19 33 3 13 14 14 21 5 30 -7 7 -18 12 -25 12 -7 0 -13
11 -13 24 0 13 -5 26 -10 28 -8 2 -19 83 -21 163 -1 44 12 87 35 111 14 16 26
32 26 36 0 12 -28 10 -35 -2 -8 -13 -72 -13 -80 -1 -3 5 1 27 9 48 25 66 27
122 5 144 -55 55 -92 -15 -65 -121 21 -82 14 -108 -32 -116 -27 -5 -45 -2 -72
13 -19 11 -47 23 -62 26 -23 6 -27 3 -37 -23 -13 -38 -32 -57 -64 -65 -22 -6
-26 -2 -37 30 -7 20 -18 39 -26 42 -8 3 -14 13 -14 22 0 30 41 103 61 108 10
3 19 10 19 15 0 5 5 6 11 3 6 -4 8 -13 5 -21 -3 -8 -1 -14 4 -14 6 0 10 -6 10
-13 0 -8 14 -26 30 -41 31 -27 31 -27 25 -3 -4 14 -1 28 8 35 24 20 9 69 -24
81 -16 6 -36 8 -44 5 -33 -13 -57 45 -35 86 11 21 60 40 101 40 22 0 29 5 29
19 0 26 -15 34 -58 33 -40 -2 -79 34 -89 80 -7 33 -18 43 -59 51 -34 6 -54 -6
-54 -34 0 -10 -5 -19 -10 -21 -7 -2 -7 -14 1 -35 15 -45 -12 -74 -72 -76 -37
-2 -44 1 -46 18 -1 11 -7 47 -13 79 -17 87 6 174 63 236 12 14 29 44 36 68 13
38 13 46 -3 80 l-18 37 -20 -28 c-11 -15 -26 -27 -33 -27 -7 0 -15 -10 -19
-23 -3 -12 -19 -38 -37 -57 -30 -34 -87 -144 -92 -181 -2 -10 -13 -29 -24 -41
-31 -33 -44 -74 -37 -117 5 -31 3 -39 -12 -45 -14 -5 -27 2 -49 28 -32 38 -62
46 -71 21 -4 -9 -19 -15 -35 -15 -33 0 -39 -15 -9 -23 17 -4 20 -13 20 -69 -1
-70 -10 -88 -58 -107 -24 -10 -39 -27 -57 -66 -14 -28 -25 -56 -25 -61 0 -5
-30 -34 -67 -64 -36 -30 -79 -68 -96 -83 -16 -15 -42 -31 -58 -34 -26 -5 -44
-29 -37 -50 7 -20 -26 -83 -43 -83 -10 0 -21 -5 -24 -10 -4 -6 -21 -16 -38
-24 -18 -8 -49 -29 -70 -49 -20 -19 -49 -42 -63 -52 -14 -9 -23 -19 -20 -22 9
-10 -26 -61 -51 -74 -13 -7 -23 -16 -23 -21 0 -4 -6 -8 -13 -8 -8 0 -22 -9
-32 -20 -10 -11 -24 -20 -31 -20 -7 0 -14 -4 -16 -8 -1 -4 -20 -21 -40 -36
-21 -16 -38 -33 -38 -38 0 -16 -54 -57 -77 -58 -12 0 -31 -9 -41 -20 -26 -28
-70 -38 -108 -25 -41 13 -25 30 39 39 57 9 72 31 63 89 -12 75 -70 145 -130
159 -31 7 -66 -8 -66 -29 0 -16 -65 -18 -83 -3 -7 6 -21 17 -32 25 -15 10 -17
16 -8 26 6 6 9 17 7 24 -8 21 35 46 56 33 25 -16 46 -4 66 37 30 63 105 105
190 105 24 0 44 5 44 10 0 6 11 10 24 10 13 0 35 9 49 20 14 11 35 20 46 20
12 0 21 6 21 13 0 7 8 20 18 29 40 39 64 81 57 100 -3 8 -42 21 -98 31 -50 10
-101 24 -113 32 -11 7 -53 17 -92 21 -61 6 -72 9 -72 25 0 15 -8 19 -42 20
-24 1 -47 2 -53 4 -5 1 -15 3 -21 3 -14 2 -37 52 -24 52 16 0 12 27 -5 34 -8
3 -15 1 -15 -5 0 -6 -5 -7 -11 -3 -6 3 -9 15 -6 25 3 11 2 19 -2 19 -4 0 -7
10 -7 23 1 19 -5 23 -49 27 -48 5 -51 7 -63 44 -15 48 -29 66 -51 66 -21 1
-46 36 -55 77 -6 25 -3 34 12 42 10 5 27 32 36 58 44 120 50 127 111 129 56 2
165 34 165 49 0 24 36 45 66 40 25 -5 32 -2 46 24 14 26 23 31 53 31 28 0 38
5 46 24 13 29 41 42 105 51 27 4 55 12 61 17 20 16 43 69 43 100 0 33 -83 168
-104 168 -14 0 -36 -41 -36 -67 0 -10 -14 -32 -32 -50 -29 -30 -38 -33 -89
-33 -39 0 -64 -6 -80 -18 -13 -10 -39 -24 -58 -32 -18 -7 -54 -33 -80 -57 -75
-71 -77 -73 -89 -73 -7 0 -12 -6 -12 -13 0 -7 -17 -19 -37 -26 -51 -18 -60
-27 -83 -77 -20 -47 -41 -55 -76 -29 -10 8 -36 15 -57 15 -33 0 -40 -4 -50
-30 l-13 -29 -24 39 c-14 22 -27 40 -31 40 -10 0 -43 33 -55 55 -6 11 -31 26
-55 34 -24 7 -54 18 -65 25 -32 17 -166 108 -192 131 -13 11 -42 22 -65 25
-39 5 -43 8 -55 45 -16 50 -50 87 -76 83 -24 -4 -86 -103 -89 -143 -2 -21 5
-32 28 -46 17 -9 37 -18 45 -19 8 0 33 -19 55 -40 22 -22 46 -40 53 -40 17 0
59 -27 105 -67 20 -18 42 -33 47 -33 9 0 72 -44 124 -87 22 -18 122 -64 176
-82 21 -7 42 -23 52 -41 20 -34 43 -39 51 -10 7 26 47 28 47 2 0 -10 4 -22 10
-28 15 -15 16 -70 1 -88 -7 -9 -22 -16 -33 -16 -22 0 -52 -62 -45 -92 6 -22
-19 -24 -47 -3 -27 20 -96 20 -96 0 0 -8 -7 -15 -15 -15 -8 0 -15 -5 -15 -10
0 -6 -11 -16 -25 -22 -18 -8 -25 -19 -25 -38 0 -14 -7 -35 -15 -46 -8 -10 -15
-26 -15 -35 0 -9 -9 -24 -20 -34 -16 -15 -30 -17 -79 -12 -56 6 -61 5 -80 -19
-18 -23 -26 -25 -85 -23 -37 1 -71 -3 -78 -9 -23 -18 -100 -32 -120 -21 -15 8
-18 6 -18 -15 0 -19 4 -23 20 -19 15 4 20 0 20 -14 0 -12 16 -31 38 -47 43
-30 82 -77 82 -101 0 -8 4 -15 9 -15 5 0 12 -9 16 -20 6 -18 33 -29 106 -44
14 -3 37 -17 52 -30 15 -14 49 -29 82 -36 30 -6 55 -15 55 -18 0 -4 14 -13 31
-21 25 -11 36 -11 50 -2 10 6 32 11 49 11 16 0 30 4 30 10 0 18 25 0 48 -35
13 -18 21 -39 17 -44 -4 -7 4 -11 18 -11 14 0 28 -7 31 -17 7 -17 -12 -36 -29
-28 -5 2 -27 9 -47 16 -21 7 -38 16 -38 21 0 4 -8 8 -19 8 -10 0 -24 6 -30 14
-16 19 -61 17 -91 -6 -15 -10 -57 -24 -95 -31 l-67 -11 -33 38 -33 39 -35 -20
c-23 -14 -38 -18 -45 -11 -5 5 -29 11 -53 14 -56 6 -122 30 -142 52 -8 9 -22
40 -30 69 -16 54 -46 93 -72 93 -8 0 -15 4 -15 9 0 5 -17 20 -37 32 -54 33
-61 41 -69 84 -5 27 -9 33 -16 23 -8 -10 -9 -9 -5 4 3 9 2 29 -3 45 -5 15 -12
40 -15 55 -7 38 -30 35 -46 -5 -20 -51 -45 -62 -54 -24 -9 32 11 80 30 73 9
-3 15 0 15 9 0 8 -7 15 -15 15 -26 0 -17 15 16 27 28 11 31 16 26 42 -4 17 -2
33 3 36 29 18 -30 155 -71 163 -20 4 -64 -34 -49 -43 5 -3 10 -24 10 -46 0
-39 0 -39 -40 -39 -37 0 -40 2 -40 27 0 14 7 34 16 44 12 13 14 28 9 63 -4 25
-10 46 -14 46 -4 0 -13 22 -20 50 -15 58 -64 130 -89 130 -9 0 -24 -6 -33 -13
-17 -13 -39 -87 -34 -115 14 -77 30 -132 37 -132 5 0 8 -24 7 -52 -1 -34 4
-64 14 -83 9 -16 17 -36 17 -42 0 -7 6 -13 14 -13 8 0 17 -4 20 -8 10 -16 18
-78 20 -148 0 -46 6 -77 16 -89 8 -10 16 -41 17 -69 2 -49 8 -60 52 -85 9 -6
11 -15 6 -27 -4 -11 -8 -30 -9 -44 -1 -16 -9 -29 -23 -35 -26 -11 -30 -25 -8
-25 11 0 15 -12 15 -47 0 -56 10 -76 33 -68 11 5 16 -1 19 -22 2 -15 7 9 12
54 11 110 31 113 41 6 4 -43 12 -81 18 -84 10 -7 8 -14 -18 -59 -17 -29 -20
-97 -5 -102 7 -2 7 -14 -1 -35 -9 -28 -7 -38 13 -75 12 -24 27 -46 32 -50 6
-4 5 -17 -2 -33 -16 -34 -15 -66 3 -89 8 -10 12 -23 8 -29 -3 -6 -1 -7 6 -3
12 8 16 -1 25 -51 4 -26 2 -33 -10 -33 -11 0 -14 -8 -12 -27 2 -22 8 -28 26
-26 14 2 22 -3 22 -12 0 -8 5 -15 11 -15 7 0 10 -18 9 -48 -2 -26 -2 -56 -1
-66 1 -19 1 -19 15 -1 12 17 13 17 20 -9 7 -30 -14 -59 -51 -70 -32 -10 -31
-46 1 -46 14 0 28 5 31 10 12 19 43 -9 47 -42 3 -18 7 -40 9 -48 4 -16 -3 -16
-36 -4 -19 7 -19 7 -3 -9 10 -10 32 -24 50 -32 52 -22 2 -18 -62 6 -30 11 -64
23 -75 26 -22 7 -430 213 -510 258 -62 34 -278 181 -365 249 -268 205 -594
534 -780 786 -14 18 -34 45 -46 59 -21 27 -91 133 -140 214 -16 26 -44 71 -63
99 -69 105 -232 430 -247 495 -4 15 -13 35 -20 44 -13 14 -44 99 -80 214 -9
28 -25 73 -35 100 -21 57 -63 214 -86 320 -8 39 -23 99 -33 135 -40 139 -71
421 -77 700 -9 394 26 729 108 1035 17 66 35 138 39 160 7 34 47 154 55 163 2
2 23 -6 48 -18 37 -17 52 -20 80 -12 27 8 43 6 73 -7 l38 -17 -30 -21 c-16
-11 -38 -22 -49 -24 -14 -3 -20 -13 -21 -34 -1 -17 -6 -50 -12 -75 -13 -51 -9
-58 45 -77 53 -18 74 -16 125 11 37 20 58 23 128 22 83 -1 84 -1 91 -29 10
-35 2 -57 -20 -57 -24 0 -71 -44 -62 -58 4 -7 30 -21 58 -32 28 -10 65 -33 84
-49 45 -42 29 -61 -55 -62 l-61 -1 40 -19 c22 -10 57 -19 78 -19 21 0 71 -11
112 -25 77 -26 151 -29 551 -28 23 0 61 8 85 17 62 24 170 26 192 4 9 -9 17
-24 17 -33 0 -8 12 -44 26 -78 22 -53 25 -66 15 -93 -21 -58 -9 -174 18 -174
19 0 41 58 41 105 0 26 -7 57 -17 72 -13 20 -17 43 -14 98 2 50 -1 76 -11 86
-13 15 -38 55 -38 63 0 2 20 14 45 26 35 17 47 29 52 51 3 16 9 29 14 29 5 0
9 8 9 18 0 9 14 28 31 42 55 43 69 59 69 79 0 33 25 44 81 37 102 -14 159 30
159 123 0 47 -4 55 -60 121 -66 76 -85 83 -143 55 -52 -25 -66 -62 -60 -150
l6 -75 -42 0 c-60 0 -80 14 -87 61 -4 22 -20 56 -36 76 -22 29 -28 43 -22 63
3 14 8 34 10 45 2 11 7 37 12 57 7 26 6 44 -3 62 -7 13 -11 26 -9 29 2 2 -7
14 -21 27 -14 13 -25 28 -25 34 0 12 -104 13 -133 1 -42 -17 -147 34 -147 72
0 18 -38 63 -53 63 -5 0 -21 8 -35 19 -15 10 -52 26 -82 36 -30 10 -75 27
-100 40 -25 12 -63 28 -85 35 -22 7 -58 21 -80 30 -117 51 -198 64 -348 56
-163 -8 -170 -9 -182 -22 -17 -18 -65 -35 -65 -23 0 25 212 405 239 429 3 3
28 39 56 80 27 41 52 77 55 80 3 3 25 32 50 65 24 33 65 85 90 115 25 30 54
65 65 79 66 81 304 320 430 431 208 183 529 400 800 540 212 110 525 239 691
285 194 54 253 69 384 94 184 37 249 47 385 60 61 6 124 13 140 15 17 2 181 3
365 1 271 -3 364 -7 488 -24z m-3611 -3323 l28 -11 -30 -7 -30 -7 28 -11 c15
-6 27 -14 27 -17 0 -11 -77 -4 -95 9 -19 14 -19 15 -1 35 22 24 34 26 73 9z
m7988 -967 c0 -31 -4 -35 -52 -53 l-53 -19 0 -83 0 -83 51 -14 c53 -14 76 -41
59 -69 -7 -11 -17 -12 -52 -3 -64 16 -372 123 -382 133 -5 5 -6 24 -2 43 6 34
7 34 164 92 86 32 177 66 202 75 57 23 65 21 65 -19z m-9460 -10 c100 -45 140
-163 88 -263 -11 -23 -20 -28 -48 -28 -19 0 -35 2 -35 5 0 3 9 22 20 42 24 46
26 95 3 133 -21 37 -54 51 -130 58 -107 8 -163 -32 -163 -117 0 -26 7 -56 15
-67 24 -32 19 -54 -13 -54 -34 0 -57 35 -67 101 -13 88 25 158 105 193 51 22
174 20 225 -3z m116 -501 c4 -14 7 -56 8 -95 1 -89 -19 -126 -77 -143 -46 -14
-94 -1 -121 32 -13 16 -16 15 -40 -7 -32 -29 -135 -87 -156 -87 -18 0 -32 47
-18 61 6 6 43 29 84 52 73 41 74 43 77 85 3 38 1 43 -15 39 -10 -3 -52 -7 -93
-9 l-75 -3 -3 33 c-2 21 1 32 10 33 7 0 87 9 178 19 212 23 232 22 241 -10z
m9334 0 c10 -17 -17 -211 -31 -217 -11 -4 -266 19 -371 33 -39 6 -43 9 -43 35
0 15 4 30 9 33 8 5 232 -15 323 -30 40 -6 34 -19 54 116 5 34 9 40 29 40 13 0
27 -4 30 -10z m-51 -469 c-10 -39 -12 -41 -47 -42 -77 -2 -92 -20 -110 -133
-6 -36 -4 -38 39 -64 35 -21 44 -32 44 -55 0 -15 -6 -30 -14 -33 -8 -3 -78 37
-157 88 -79 52 -161 104 -181 117 -28 16 -38 30 -38 47 0 45 17 64 58 65 20 0
114 10 207 22 94 13 178 21 187 19 14 -3 16 -11 12 -31z m-9212 4 c7 -16 8
-29 2 -35 -10 -10 -365 -90 -399 -90 -16 0 -24 7 -27 24 -3 14 -2 29 1 34 5 8
351 87 399 91 7 0 18 -10 24 -24z m96 -350 c2 -1 5 -18 9 -38 6 -38 28 -17
-266 -250 -40 -32 -78 -56 -84 -54 -6 2 -14 16 -18 31 -6 21 -3 31 13 44 11 9
32 26 46 38 l25 20 -17 55 c-31 97 -33 99 -92 99 -55 0 -74 14 -74 56 0 16 17
16 228 10 125 -5 228 -9 230 -11z m8763 -119 c123 -47 169 -94 169 -172 0 -26
-30 -96 -52 -125 -19 -24 -73 -49 -104 -49 -26 0 -281 89 -313 109 -19 12 -6
61 17 61 9 0 71 -21 137 -46 146 -56 187 -60 221 -21 34 40 33 95 -3 128 -22
20 -171 83 -271 115 -21 6 -25 34 -7 54 17 18 18 18 64 1 25 -10 89 -35 142
-55z m-6441 -16 c0 -5 -4 -10 -10 -10 -5 0 -10 5 -10 10 0 6 5 10 10 10 6 0
10 -4 10 -10z m-2149 -314 c58 -125 50 -201 -28 -265 -43 -36 -130 -71 -174
-71 -39 0 -98 25 -130 56 -33 32 -94 157 -86 178 6 15 337 183 365 185 7 1 31
-37 53 -83z m5359 16 c0 6 11 1 25 -12 21 -19 24 -30 19 -55 -3 -16 -12 -36
-20 -44 -12 -13 -16 -12 -32 2 -19 17 -42 79 -42 112 0 16 2 16 25 1 17 -11
25 -13 25 -4z m2909 -144 c64 -37 126 -72 224 -124 69 -38 82 -59 51 -85 -13
-11 -28 -7 -96 30 -44 23 -84 39 -88 34 -4 -4 -23 -38 -43 -75 l-37 -68 53
-29 c28 -16 64 -36 80 -45 30 -17 34 -33 14 -60 -11 -15 -16 -16 -42 -5 -17 7
-46 23 -65 35 -37 22 -74 43 -202 113 -43 24 -78 48 -78 54 1 15 25 47 35 47
4 0 39 -18 76 -39 50 -29 70 -36 77 -28 24 31 73 130 69 140 -3 7 -30 25 -61
41 -71 37 -81 48 -66 75 15 29 33 26 99 -11z m-3014 -78 c-5 -8 -11 -8 -17 -2
-6 6 -7 16 -3 22 5 8 11 8 17 2 6 -6 7 -16 3 -22z m-5036 -197 c12 -16 25 -33
31 -40 5 -7 10 -15 10 -18 0 -3 14 -24 30 -47 33 -46 38 -73 14 -82 -28 -11
-33 -7 -75 59 -22 36 -44 65 -48 65 -5 0 -73 -42 -90 -56 -2 -2 14 -29 35 -59
30 -45 36 -60 28 -73 -21 -33 -40 -24 -78 37 l-38 60 -58 -36 -58 -37 45 -67
c47 -70 50 -99 13 -99 -15 0 -37 25 -80 90 -32 50 -57 96 -54 103 2 7 39 34
82 62 42 27 117 75 166 107 49 32 93 58 97 58 4 0 17 -12 28 -27z m2148 -55
c-2 -13 -4 -3 -4 22 0 25 2 35 4 23 2 -13 2 -33 0 -45z m3353 22 c0 -33 -3
-40 -20 -40 -24 0 -26 22 -5 40 8 7 15 19 15 26 0 8 2 14 5 14 3 0 5 -18 5
-40z m130 -25 c0 -8 -9 -15 -20 -15 -25 0 -26 17 -2 23 9 3 18 5 20 6 1 0 2
-6 2 -14z m49 -34 c6 -10 7 -21 4 -25 -9 -9 -36 -7 -52 3 -12 8 -12 12 -2 25
18 21 38 20 50 -3z m-3364 -20 c7 -12 -12 -24 -25 -16 -11 7 -4 25 10 25 5 0
11 -4 15 -9z m3093 -19 c2 -12 10 -22 17 -22 9 0 12 -6 9 -15 -12 -31 -74 -2
-74 35 0 37 43 40 48 2z m2457 -150 c130 -38 201 -64 203 -73 1 -8 -4 -23 -12
-34 -13 -18 -16 -18 -72 -3 -32 9 -59 16 -60 15 0 -1 -21 -31 -46 -67 l-45
-65 28 -40 c33 -47 36 -66 11 -89 -22 -19 -26 -16 -82 69 -18 28 -68 102 -111
167 -44 64 -79 119 -79 122 0 17 34 56 49 56 9 0 106 -26 216 -58z m-7594 -99
c61 -70 84 -126 70 -173 -17 -56 -44 -75 -107 -75 -33 0 -54 -4 -54 -11 0 -13
-77 -165 -90 -178 -12 -12 -50 21 -50 41 0 8 16 43 35 77 19 35 35 75 35 90 0
30 -16 66 -29 66 -5 0 -39 -25 -76 -55 -64 -53 -68 -55 -86 -39 -11 9 -19 23
-19 29 0 7 39 46 88 86 48 40 89 76 92 79 3 3 25 21 50 40 25 19 54 43 64 52
11 10 23 18 27 18 4 0 26 -21 50 -47z m2469 -2 c0 -6 9 -8 19 -6 17 3 21 -4
26 -39 13 -87 -7 -117 -47 -71 -24 27 -51 103 -42 117 7 11 44 10 44 -1z
m4728 -157 c26 -18 29 -44 5 -44 -9 0 -35 -11 -59 -25 -81 -47 -80 -131 4
-211 59 -57 110 -74 157 -51 39 19 65 53 74 100 9 41 41 44 55 6 12 -36 -26
-113 -76 -152 -75 -60 -186 -39 -269 50 -50 54 -69 98 -69 158 0 78 50 147
130 178 23 8 24 8 48 -9z m-6865 -218 c71 -30 127 -113 127 -186 0 -36 -51
-120 -100 -164 -82 -74 -164 -86 -242 -37 -87 55 -121 155 -81 239 22 47 103
129 146 147 41 18 109 19 150 1z m5109 -31 c26 -24 58 -47 71 -50 13 -4 31
-20 41 -36 18 -30 18 -31 -5 -55 -12 -13 -28 -24 -35 -24 -7 0 -10 -8 -7 -20
4 -14 14 -20 32 -20 14 0 33 -4 41 -10 12 -7 12 -12 -4 -29 -29 -32 -55 -36
-77 -12 -10 11 -19 29 -19 41 0 14 -7 20 -23 20 -19 0 -26 8 -37 43 -7 23 -21
59 -31 79 -22 43 -26 118 -6 118 6 0 33 -20 59 -45z m-3389 -52 c8 -33 7 -78
-3 -93 -8 -13 -11 -12 -23 4 -8 11 -19 16 -25 12 -8 -5 -12 2 -11 21 0 15 3
22 6 16 9 -23 23 -14 23 15 0 42 24 60 33 25z m3919 -63 c9 0 19 -4 22 -9 11
-18 -5 -38 -50 -59 -42 -21 -44 -21 -35 -3 8 14 6 23 -9 36 -24 21 -26 45 -5
45 8 0 15 5 15 11 0 5 10 3 22 -5 12 -9 30 -16 40 -16z m-189 -137 c-22 -8
-14 -21 10 -16 21 5 21 4 -3 -16 -26 -21 -41 -23 -47 -4 -5 13 24 43 40 42 9
0 8 -2 0 -6z m833 -132 c49 -32 128 -83 177 -114 48 -31 87 -61 87 -66 0 -15
-30 -41 -46 -41 -8 0 -32 11 -52 25 -20 14 -41 25 -45 25 -5 0 -36 -19 -68
-42 -51 -37 -59 -46 -54 -68 3 -14 8 -44 11 -66 6 -37 4 -43 -16 -49 -30 -10
-36 -2 -63 90 -13 44 -41 135 -62 203 -36 118 -37 124 -20 142 28 31 55 24
151 -39z m-976 15 c0 -3 -13 -11 -30 -20 -34 -16 -37 -15 -14 8 14 14 44 22
44 12z m-4632 -132 c113 -47 153 -158 97 -270 -80 -162 -222 -199 -341 -91
-45 41 -48 47 -52 103 -5 69 10 111 63 184 60 81 149 110 233 74z m5106 -137
c10 -17 26 -45 36 -62 33 -57 122 -200 128 -207 4 -4 32 9 62 28 60 38 93 41
98 9 2 -17 -15 -32 -84 -73 -48 -29 -93 -51 -100 -48 -13 5 -65 82 -104 153
-11 21 -43 74 -70 118 -49 80 -49 80 -28 98 29 24 40 21 62 -16z m-4744 -82
c14 -17 12 -53 -14 -244 -9 -63 -14 -116 -13 -118 2 -1 59 53 126 122 68 69
127 125 133 125 15 0 48 -20 48 -29 0 -18 -302 -306 -323 -309 -12 -2 -31 4
-42 11 -19 15 -19 17 4 223 12 115 24 215 26 222 6 17 40 15 55 -3z m4490 -87
c41 -28 96 -106 110 -156 13 -48 13 -113 -1 -149 -26 -68 -104 -116 -191 -117
-48 -1 -61 3 -93 29 -69 56 -125 185 -111 257 23 121 190 201 286 136z m-3986
-139 c6 -5 -18 -77 -57 -176 -36 -92 -71 -180 -76 -195 -17 -47 -79 -32 -67
16 6 25 133 353 143 369 5 9 43 0 57 -14z m3490 -39 c19 -7 26 -17 26 -36 0
-25 -2 -26 -40 -21 -50 6 -101 -7 -125 -33 -71 -78 9 -280 112 -280 23 0 83
36 104 62 21 27 49 17 49 -15 0 -29 -43 -75 -87 -93 -43 -19 -117 -18 -158 2
-84 40 -143 188 -115 289 27 97 144 159 234 125z m-3201 -72 c18 -18 29 -56
52 -175 17 -84 32 -153 35 -153 3 0 23 62 45 138 38 129 42 137 67 140 18 2
28 -2 32 -15 6 -20 -95 -378 -111 -394 -6 -6 -24 -8 -41 -4 -35 7 -43 25 -66
138 -9 42 -23 112 -33 155 l-16 77 -24 -75 c-12 -41 -32 -110 -44 -152 -22
-81 -35 -93 -72 -65 -15 11 -13 26 33 187 62 218 63 220 95 220 14 0 36 -10
48 -22z m2771 -259 c51 -209 51 -224 5 -217 -25 3 -24 -1 -108 333 -20 76 -16
85 29 85 24 0 27 -7 74 -201z m-2113 116 c83 -30 119 -82 119 -174 0 -105 -46
-203 -112 -237 -38 -20 -131 -20 -178 0 -19 8 -48 29 -65 46 -29 31 -30 34
-30 133 0 85 4 109 22 142 27 51 52 73 100 91 50 18 91 17 144 -1z m1742 -6
c59 -30 78 -120 36 -173 l-21 -27 24 -27 c29 -30 98 -138 98 -151 0 -8 -33
-21 -56 -21 -6 0 -34 36 -62 80 -50 79 -52 80 -92 80 l-41 0 6 -47 c4 -27 10
-64 15 -84 9 -42 4 -54 -27 -63 -18 -6 -25 -2 -32 16 -17 41 -73 390 -65 398
26 24 180 38 217 19z m-456 -61 c36 -17 46 -68 13 -68 -12 0 -30 5 -42 11 -27
15 -100 15 -136 0 -62 -26 -92 -143 -58 -226 25 -59 99 -89 174 -69 19 6 22
13 22 60 l0 53 -52 3 c-49 3 -53 5 -56 30 -3 26 -2 26 73 33 54 5 80 4 88 -4
12 -12 26 -161 19 -193 -11 -44 -184 -69 -249 -35 -165 86 -140 363 37 416 43
13 129 7 167 -11z m-598 -75 c14 -43 44 -139 68 -213 24 -76 39 -138 34 -143
-5 -5 -21 -7 -36 -5 -24 3 -30 10 -44 58 l-17 55 -83 0 -84 0 -14 -40 c-18
-53 -35 -69 -67 -61 l-25 6 20 58 c11 31 26 71 33 87 8 17 35 85 62 153 l47
122 41 0 41 0 24 -77z"/>
<path d="M5460 10149 l0 -162 56 6 c101 10 139 57 138 168 -2 102 -47 149
-143 149 l-51 0 0 -161z"/>
<path d="M6091 10247 c-39 -19 -63 -74 -69 -153 -5 -81 4 -106 51 -134 75 -46
154 -10 182 83 29 98 9 187 -47 206 -41 14 -87 14 -117 -2z"/>
<path d="M6686 10142 c-2 -4 -11 -31 -20 -60 -18 -61 -14 -65 57 -66 32 -1 43
4 60 26 18 24 19 31 7 52 -7 14 -20 28 -29 32 -37 15 -71 22 -75 16z"/>
<path d="M3305 9798 c-67 -19 -101 -79 -83 -145 22 -82 67 -145 116 -164 35
-13 98 9 129 45 22 27 25 37 20 83 -5 52 -41 125 -76 157 -26 24 -71 34 -106
24z"/>
<path d="M2774 9468 c-16 -12 -31 -23 -33 -24 -4 -4 82 -123 89 -124 3 0 20
13 38 29 40 37 43 81 7 116 -30 31 -63 32 -101 3z"/>
<path d="M4926 7961 c-11 -12 -35 -20 -67 -23 -59 -6 -71 -15 -44 -34 15 -11
35 -13 75 -9 73 8 108 23 116 47 12 38 -50 53 -80 19z"/>
<path d="M5104 7918 c-3 -5 -1 -15 5 -21 8 -8 15 -7 27 5 14 14 14 16 -5 21
-12 3 -24 1 -27 -5z"/>
<path d="M5717 7743 c-4 -3 -7 -19 -7 -35 0 -22 5 -28 21 -28 24 0 49 22 49
43 0 22 -47 37 -63 20z"/>
<path d="M7032 7070 c-6 -11 -12 -31 -12 -45 0 -22 4 -25 34 -25 25 0 39 7 50
22 22 31 20 43 -9 56 -36 17 -48 15 -63 -8z"/>
<path d="M2993 7012 l-31 -17 23 -17 c28 -21 44 -22 96 -6 48 14 50 34 7 43
-18 4 -40 8 -48 10 -8 2 -29 -4 -47 -13z"/>
<path d="M7213 6993 c-7 -3 -13 -14 -13 -26 0 -20 1 -20 16 -5 18 18 16 37 -3
31z"/>
<path d="M6954 6687 c-16 -18 -37 -39 -46 -47 -103 -99 -108 -106 -108 -153 0
-42 4 -49 53 -92 122 -108 172 -117 208 -39 12 24 30 51 40 58 10 7 31 35 45
62 15 27 33 60 40 74 19 34 17 48 -15 100 -22 37 -35 47 -72 57 -76 20 -110
15 -145 -20z"/>
<path d="M8560 6493 c0 -5 14 -14 31 -22 22 -10 36 -11 52 -3 20 10 19 11 -11
11 -18 1 -42 6 -53 11 -10 6 -19 7 -19 3z"/>
<path d="M1480 6344 c0 -8 5 -12 10 -9 6 3 10 10 10 16 0 5 -4 9 -10 9 -5 0
-10 -7 -10 -16z"/>
<path d="M1580 6280 c-34 -8 -12 -18 25 -10 19 3 25 8 15 11 -8 3 -26 3 -40
-1z"/>
<path d="M1650 6261 c0 -5 7 -14 15 -21 13 -10 15 -9 15 9 0 12 -6 21 -15 21
-8 0 -15 -4 -15 -9z"/>
<path d="M1700 6230 c-14 -9 -2 -38 18 -44 20 -6 84 -9 130 -7 52 2 39 26 -20
39 -73 16 -116 20 -128 12z"/>
<path d="M3049 5613 c-12 -33 12 -143 40 -178 9 -13 23 -42 30 -66 27 -95 35
-114 47 -124 8 -5 18 -40 23 -76 5 -36 14 -75 19 -85 16 -30 42 -169 42 -227
1 -55 24 -115 34 -87 33 87 47 190 26 190 -6 0 -10 31 -10 73 -1 93 -19 159
-54 196 -25 26 -27 33 -21 75 7 46 -4 76 -42 114 -7 7 -13 23 -13 35 0 55 -48
170 -75 181 -28 10 -35 7 -46 -21z"/>
<path d="M7250 5528 c0 -7 -18 -29 -40 -49 -50 -45 -56 -96 -15 -123 30 -20
69 -21 84 -2 18 21 26 113 12 130 -7 8 -11 23 -9 32 2 11 -4 20 -14 22 -10 2
-18 -2 -18 -10z"/>
<path d="M7152 5229 c4 -29 33 -48 49 -32 16 16 -6 53 -32 53 -15 0 -20 -5
-17 -21z"/>
<path d="M7561 5024 c0 -11 3 -14 6 -6 3 7 2 16 -1 19 -3 4 -6 -2 -5 -13z"/>
<path d="M7067 4843 c-13 -12 -7 -51 9 -57 15 -6 54 9 54 20 0 30 -44 56 -63
37z"/>
<path d="M3938 4674 c-34 -18 -47 -59 -25 -81 15 -15 19 -14 51 11 27 20 36
34 36 57 0 33 -18 37 -62 13z"/>
<path d="M7560 4679 c0 -4 -5 -31 -10 -60 -12 -62 -4 -139 15 -139 21 0 39 84
26 121 -6 17 -9 35 -6 39 2 4 -2 16 -10 26 -8 10 -15 16 -15 13z"/>
<path d="M3857 4548 c-8 -27 8 -47 24 -31 13 13 9 45 -7 50 -6 2 -14 -6 -17
-19z"/>
<path d="M3287 4503 c-3 -5 1 -39 9 -76 11 -53 11 -72 2 -86 -15 -24 4 -115
29 -143 10 -11 19 -49 24 -108 5 -50 15 -111 24 -136 17 -52 19 -78 5 -104
-12 -22 7 -40 45 -44 33 -4 65 35 65 80 0 66 -32 183 -76 281 -13 28 -24 57
-24 62 0 6 -4 11 -10 11 -5 0 -12 17 -16 38 -4 20 -15 49 -26 64 -11 16 -16
36 -13 50 12 51 -19 142 -38 111z"/>
<path d="M7727 4403 c-9 -9 -9 -43 1 -43 15 0 29 16 29 33 0 17 -18 23 -30 10z"/>
<path d="M7138 4383 c-6 -25 12 -63 29 -63 20 0 27 28 15 56 -13 28 -39 32
-44 7z"/>
<path d="M7048 3833 c7 -3 16 -2 19 1 4 3 -2 6 -13 5 -11 0 -14 -3 -6 -6z"/>
<path d="M7486 3774 c-9 -8 -16 -21 -16 -28 0 -8 -7 -19 -15 -26 -21 -17 -20
-86 1 -94 9 -3 19 -6 22 -6 12 0 78 60 67 61 -5 0 0 4 13 9 16 7 22 18 22 40
0 16 -4 30 -10 30 -5 0 -10 7 -10 15 0 20 -54 20 -74 -1z"/>
<path d="M7097 3742 c-34 -4 -41 -19 -27 -56 9 -24 14 -27 52 -24 34 2 44 7
46 23 4 29 -36 62 -71 57z"/>
<path d="M6480 3690 c0 -5 5 -10 11 -10 5 0 7 5 4 10 -3 6 -8 10 -11 10 -2 0
-4 -4 -4 -10z"/>
<path d="M7520 3535 c0 -9 9 -15 25 -15 18 0 23 4 19 15 -4 8 -15 15 -25 15
-10 0 -19 -7 -19 -15z"/>
<path d="M7380 3530 c0 -5 -6 -10 -13 -10 -21 0 -8 -58 25 -112 16 -27 36 -48
43 -48 20 0 36 -25 49 -77 11 -42 16 -48 37 -45 45 5 49 10 49 63 0 44 -4 55
-27 75 -16 13 -33 24 -40 24 -17 0 -33 33 -33 67 0 34 -14 58 -28 49 -5 -3
-15 1 -22 9 -14 17 -40 20 -40 5z"/>
<path d="M7777 3463 c-12 -11 14 -33 39 -33 29 0 31 15 5 30 -23 12 -35 13
-44 3z"/>
<path d="M8057 3073 c-11 -10 -8 -51 4 -58 18 -12 38 26 25 47 -12 19 -19 22
-29 11z"/>
<path d="M7604 2762 c-38 -26 -16 -114 38 -150 38 -25 50 -52 24 -52 -8 0 -17
-7 -20 -16 -5 -13 -15 -15 -50 -11 -56 8 -67 -3 -51 -51 15 -42 52 -58 99 -42
16 6 40 10 52 10 15 0 24 6 24 15 0 9 9 15 25 15 14 0 37 7 50 16 13 9 29 13
35 9 16 -10 12 44 -5 61 -21 21 -19 29 10 44 28 15 32 41 10 60 -9 7 -42 14
-74 14 -55 2 -60 4 -96 44 -38 42 -51 48 -71 34z"/>
<path d="M7877 2460 c3 -11 9 -20 14 -20 5 0 9 9 9 20 0 11 -6 20 -14 20 -9 0
-12 -7 -9 -20z"/>
<path d="M7750 2415 c-10 -12 -10 -19 -2 -27 9 -9 12 -9 12 -1 0 6 7 13 17 15
14 3 14 4 1 16 -13 10 -18 9 -28 -3z"/>
<path d="M7821 2296 c-14 -17 -7 -52 13 -59 10 -4 12 4 10 30 -3 42 -8 48 -23
29z"/>
<path d="M3470 1951 c0 -5 6 -13 13 -19 15 -13 42 1 33 17 -8 13 -46 15 -46 2z"/>
<path d="M10032 5087 c-46 -17 -79 -33 -75 -37 13 -10 154 -52 159 -47 3 3 4
29 2 59 l-3 54 -83 -29z"/>
<path d="M815 4651 l-50 -6 2 -38 c4 -57 18 -77 58 -77 48 0 67 23 63 78 -3
51 -4 51 -73 43z"/>
<path d="M9895 4161 l-50 -6 74 -47 c41 -27 78 -48 82 -48 3 0 9 13 12 29 3
16 9 40 13 55 6 25 5 26 -37 24 -24 0 -66 -4 -94 -7z"/>
<path d="M850 3823 c0 -3 7 -30 17 -59 l16 -53 28 22 c15 12 42 33 60 47 18
14 39 30 48 37 13 10 -2 12 -76 13 -51 0 -93 -3 -93 -7z"/>
<path d="M1080 3374 c-69 -34 -129 -65 -135 -67 -18 -8 38 -100 73 -121 31
-17 39 -18 90 -6 45 10 66 22 100 55 35 35 42 49 42 81 0 33 -33 127 -42 123
-2 -1 -59 -30 -128 -65z"/>
<path d="M9237 2663 c25 -38 49 -71 53 -76 3 -4 21 13 39 38 18 26 32 48 30
50 -6 5 -151 55 -160 55 -5 0 13 -30 38 -67z"/>
<path d="M1670 2570 l-45 -40 32 -31 c38 -38 79 -42 105 -9 10 12 18 28 18 35
0 15 -42 78 -55 81 -5 2 -30 -15 -55 -36z"/>
<path d="M1961 2192 c-56 -38 -101 -106 -101 -154 0 -53 57 -108 112 -108 60
0 137 61 172 135 24 50 20 74 -23 116 -50 50 -97 53 -160 11z"/>
<path d="M8304 1815 c3 -9 15 -47 27 -85 23 -77 23 -77 88 -23 l33 29 -71 47
c-77 51 -86 55 -77 32z"/>
<path d="M2625 1647 c-94 -99 -101 -198 -15 -242 41 -21 82 -19 121 8 45 30
90 106 96 161 5 42 3 48 -30 81 -30 30 -41 35 -83 35 -43 0 -51 -4 -89 -43z"/>
<path d="M7484 1381 c-58 -26 -81 -76 -64 -140 26 -95 82 -161 138 -161 70 0
122 50 122 117 0 41 -35 124 -66 159 -14 15 -76 46 -88 44 -1 0 -19 -9 -42
-19z"/>
<path d="M4474 986 c-42 -19 -74 -74 -81 -140 -8 -74 3 -117 33 -140 33 -24
101 -31 134 -14 54 28 97 175 69 234 -28 56 -100 84 -155 60z"/>
<path d="M6207 983 c-16 -4 -18 -11 -12 -50 11 -72 14 -76 53 -69 44 7 72 32
72 66 0 48 -47 70 -113 53z"/>
<path d="M5174 804 l-32 -84 59 0 c33 0 59 3 59 8 0 11 -46 151 -51 156 -2 2
-18 -33 -35 -80z"/>
</g>
</svg>
